<?xml version="1.0" standalone="no"?>
<!DOCTYPE svg PUBLIC "-//W3C//DTD SVG 20010904//EN"
 "http://www.w3.org/TR/2001/REC-SVG-20010904/DTD/svg10.dtd">
<svg version="1.0" xmlns="http://www.w3.org/2000/svg"
 width="192.000000pt" height="192.000000pt" viewBox="0 0 192.000000 192.000000"
 preserveAspectRatio="xMidYMid meet">
<metadata>
Created by potrace 1.14, written by Peter Selinger 2001-2017
</metadata>
<g transform="translate(0.000000,192.000000) scale(0.100000,-0.100000)"
fill="#000000" stroke="none">
<path d="M0 960 l0 -960 960 0 960 0 0 960 0 960 -960 0 -960 0 0 -960z m940
490 c0 -40 4 -70 10 -70 6 0 10 30 10 70 l0 70 298 0 c218 0 301 -3 310 -12
17 -17 17 -509 0 -526 -9 -9 -92 -12 -310 -12 l-298 0 0 70 c0 40 -4 70 -10
70 -6 0 -10 -30 -10 -70 l0 -70 -281 0 c-174 0 -288 4 -300 10 -18 10 -19 24
-19 263 0 184 3 256 12 265 9 9 89 12 300 12 l288 0 0 -70z m621 -510 c18 -10
19 -24 19 -263 0 -184 -3 -256 -12 -265 -17 -17 -1199 -17 -1216 0 -9 9 -12
80 -12 259 0 212 2 250 16 263 14 14 82 16 600 16 384 0 592 -4 605 -10z"/>
<path d="M940 660 c0 -40 4 -70 10 -70 6 0 10 30 10 70 0 40 -4 70 -10 70 -6
0 -10 -30 -10 -70z"/>
</g>
</svg>
