<svg width="168" height="30" viewBox="0 0 168 30" fill="none" xmlns="http://www.w3.org/2000/svg">
<path d="M0.138123 29V1.82846H5.45763V16.4858C5.81481 14.3682 6.60572 12.6716 7.83035 11.3959C9.0805 10.1202 10.5985 9.48242 12.3845 9.48242C13.8132 9.48242 15.0633 9.8396 16.1349 10.554C17.2065 11.2683 18.0356 12.2889 18.6224 13.6156C19.2092 14.9167 19.5026 16.4348 19.5026 18.1697V29H14.1449V19.0116C14.1194 17.6339 13.7111 16.5241 12.9202 15.6821C12.1293 14.8402 11.096 14.4192 9.82038 14.4192C9.00396 14.4192 8.26408 14.6233 7.60073 15.0315C6.93739 15.4398 6.41437 15.9883 6.03167 16.6771C5.64897 17.366 5.45763 18.1441 5.45763 19.0116V29H0.138123Z" fill="#EB1F1F"/>
<path d="M34.2042 29.3827C32.2142 29.3827 30.4155 28.949 28.8082 28.0815C27.2264 27.2141 25.9762 26.0277 25.0577 24.5224C24.1648 22.9917 23.7183 21.295 23.7183 19.4326C23.7183 17.5446 24.1648 15.848 25.0577 14.3427C25.9762 12.8374 27.2264 11.651 28.8082 10.7836C30.4155 9.91614 32.2142 9.48242 34.2042 9.48242C36.1687 9.48242 37.9419 9.91614 39.5237 10.7836C41.1311 11.651 42.394 12.8502 43.3124 14.381C44.2309 15.8862 44.6901 17.5701 44.6901 19.4326C44.6901 21.295 44.2309 22.9917 43.3124 24.5224C42.394 26.0277 41.1311 27.2141 39.5237 28.0815C37.9419 28.949 36.1687 29.3827 34.2042 29.3827ZM34.2042 24.4459C35.1227 24.4459 35.9646 24.229 36.73 23.7953C37.4954 23.3616 38.095 22.762 38.5287 21.9966C38.9879 21.2312 39.2176 20.3766 39.2176 19.4326C39.2176 18.4886 38.9879 17.6339 38.5287 16.8685C38.095 16.1031 37.4954 15.5035 36.73 15.0698C35.9646 14.6106 35.1227 14.381 34.2042 14.381C33.2602 14.381 32.4055 14.6106 31.6401 15.0698C30.8748 15.5035 30.2624 16.1031 29.8032 16.8685C29.3695 17.6339 29.1526 18.4886 29.1526 19.4326C29.1526 20.3766 29.3695 21.2312 29.8032 21.9966C30.2624 22.762 30.8748 23.3616 31.6401 23.7953C32.4055 24.229 33.2602 24.4459 34.2042 24.4459Z" fill="#EB1F1F"/>
<path d="M49.246 29V1.82846H54.5656V19.0499H56.1729L62.4491 9.86512H68.0748L61.6072 19.0116L68.4958 29H62.2961L56.0963 19.8153H54.5656V29H49.246Z" fill="#EB1F1F"/>
<path d="M72.193 29V1.82846H77.5125V19.0499H79.1198L85.3961 9.86512H91.0217L84.5541 19.0116L91.4427 29H85.243L79.0433 19.8153H77.5125V29H72.193Z" fill="#EB1F1F"/>
<path d="M101.875 29.3827C100.447 29.3827 99.1965 29.0255 98.125 28.3112C97.0534 27.5968 96.2242 26.589 95.6374 25.2878C95.0506 23.9612 94.7572 22.4304 94.7572 20.6955V9.86512H100.115L100.153 19.8153C100.153 21.2185 100.549 22.3411 101.34 23.183C102.131 24.0249 103.164 24.4459 104.439 24.4459C105.256 24.4459 105.996 24.2418 106.659 23.8336C107.322 23.4254 107.845 22.8768 108.228 22.188C108.611 21.4991 108.802 20.7082 108.802 19.8153V9.86512H114.122V29H108.802V22.3793C108.445 24.4969 107.641 26.1936 106.391 27.4692C105.167 28.7449 103.661 29.3827 101.875 29.3827Z" fill="#EB1F1F"/>
<path d="M120.404 29V9.86512H125.723V29H120.404ZM122.891 7.68374L119.715 0.489014H126.489L123.274 7.68374H122.891Z" fill="#EB1F1F"/>
<path d="M140.141 29.5358C137.156 29.5358 134.719 28.8597 132.831 27.5075C130.969 26.1553 129.948 24.2673 129.77 21.8436H135.281C135.459 22.9406 135.97 23.7698 136.812 24.3311C137.653 24.8924 138.699 25.173 139.95 25.173C140.639 25.173 141.289 25.0837 141.901 24.9051C142.514 24.7266 143.011 24.4459 143.394 24.0632C143.777 23.655 143.968 23.1575 143.968 22.5707C143.968 21.9839 143.789 21.5246 143.432 21.193C143.101 20.8358 142.59 20.5551 141.901 20.351C141.238 20.1469 140.332 19.9556 139.184 19.777C139.031 19.7515 138.865 19.726 138.687 19.7005C138.534 19.6749 138.368 19.6494 138.189 19.6239C136.378 19.3943 134.911 19.1137 133.788 18.782C132.691 18.4248 131.862 17.9528 131.301 17.366C130.765 16.7537 130.497 15.9628 130.497 14.9933C130.497 13.8197 130.867 12.8119 131.607 11.97C132.347 11.1025 133.367 10.4519 134.668 10.0182C135.995 9.55896 137.5 9.32934 139.184 9.32934C142.118 9.32934 144.453 10.0054 146.188 11.3576C147.948 12.7098 148.905 14.6233 149.058 17.0981H143.777C143.7 15.9755 143.266 15.1336 142.475 14.5723C141.685 14.011 140.715 13.7304 139.567 13.7304C138.546 13.7304 137.666 13.9727 136.926 14.4575C136.186 14.9167 135.817 15.5801 135.817 16.4475C135.817 16.9323 135.97 17.3532 136.276 17.7104C136.607 18.0676 137.105 18.3738 137.768 18.6289C138.432 18.8585 139.299 19.0499 140.371 19.2029C140.549 19.2285 140.728 19.254 140.906 19.2795C141.111 19.305 141.315 19.3305 141.519 19.356C141.621 19.3815 141.723 19.3943 141.825 19.3943C141.927 19.3943 142.029 19.4071 142.131 19.4326C143.738 19.6367 145.052 19.9301 146.073 20.3128C147.093 20.6955 147.846 21.193 148.331 21.8053C148.815 22.3921 149.058 23.1447 149.058 24.0632C149.058 25.2113 148.675 26.1936 147.91 27.01C147.144 27.8264 146.086 28.4515 144.733 28.8852C143.381 29.3189 141.85 29.5358 140.141 29.5358Z" fill="#EB1F1F"/>
<path d="M162.439 29.3827C159.938 29.3827 158.089 28.8469 156.889 27.7754C155.69 26.6783 155.091 25.0837 155.091 22.9917V14.6488H150.766V9.86512H153.292C154.083 9.86512 154.683 9.66101 155.091 9.2528C155.499 8.81907 155.703 8.21951 155.703 7.45412V5.27274H160.41V9.86512H167.299V14.6488H160.41V21.6522C160.41 22.6472 160.665 23.3616 161.176 23.7953C161.686 24.229 162.515 24.4459 163.663 24.4459C164.684 24.4459 165.896 24.3311 167.299 24.1015V28.8852C166.533 29.0128 165.704 29.1276 164.811 29.2296C163.918 29.3317 163.127 29.3827 162.439 29.3827Z" fill="#EB1F1F"/>
</svg>
