<svg width="24" height="24" viewBox="0 0 24 24" fill="none" xmlns="http://www.w3.org/2000/svg">
<path d="M20.3757 3.01112C20.0289 2.97434 19.6519 3.0285 19.2731 3.17824C18.8035 3.36293 11.4457 6.45805 4.58696 9.34536L2.32065 10.2992C1.44309 10.655 1 11.2337 1 12.0132C1 12.5589 1.23097 13.2991 2.33288 13.7353L6.15829 15.2679C6.48907 16.2603 7.25736 18.5644 7.45041 19.1769C7.56519 19.54 7.85511 20.4548 8.58764 20.6687C8.7379 20.7199 8.8947 20.7462 9.05435 20.7462C9.51661 20.7462 9.84945 20.531 10.0122 20.4058L12.4436 18.3494L15.3967 21.0804C15.5105 21.1962 16.1125 21.7815 16.9212 21.7815C17.9302 21.7815 18.6956 20.9415 18.8553 20.1286C18.9419 19.6831 21.7901 5.38539 21.7901 5.38748C22.0457 4.2407 21.5861 3.6458 21.2908 3.39223C21.0377 3.17571 20.7225 3.0479 20.3757 3.01112ZM19.6848 5.2652C19.2914 7.23737 17.1469 18.0023 16.8213 19.5539L12.5048 15.5614L9.57609 18.0417L10.3872 14.8685C10.3872 14.8685 15.9829 9.20431 16.32 8.87457C16.5913 8.61057 16.6481 8.51803 16.6481 8.4262C16.6481 8.30411 16.5853 8.21628 16.4402 8.21628C16.3098 8.21628 16.1326 8.34127 16.0387 8.39971C14.8457 9.14351 9.76541 12.0377 7.26495 13.4602L3.63723 12.0111L5.3981 11.2713C9.88401 9.38261 17.8733 6.01859 19.6848 5.2652Z" fill="#FFFFFF"/>
</svg>
